<svg id="visual" viewBox="0 0 900 300" width="900" height="300" xmlns="http://www.w3.org/2000/svg" xmlns:xlink="http://www.w3.org/1999/xlink" version="1.1"><rect x="0" y="0" width="900" height="300" fill="#ffffff"></rect><path d="M0 232L11.5 229.3C23 226.7 46 221.3 69 216.2C92 211 115 206 138.2 208.8C161.3 211.7 184.7 222.3 207.8 227.7C231 233 254 233 277 222.3C300 211.7 323 190.3 346 182.5C369 174.7 392 180.3 415.2 187C438.3 193.7 461.7 201.3 484.8 204.3C508 207.3 531 205.7 554 208.8C577 212 600 220 623 223.8C646 227.7 669 227.3 692.2 222.8C715.3 218.3 738.7 209.7 761.8 202.2C785 194.7 808 188.3 831 193.5C854 198.7 877 215.3 888.5 223.7L900 232L900 0L888.5 0C877 0 854 0 831 0C808 0 785 0 761.8 0C738.7 0 715.3 0 692.2 0C669 0 646 0 623 0C600 0 577 0 554 0C531 0 508 0 484.8 0C461.7 0 438.3 0 415.2 0C392 0 369 0 346 0C323 0 300 0 277 0C254 0 231 0 207.8 0C184.7 0 161.3 0 138.2 0C115 0 92 0 69 0C46 0 23 0 11.5 0L0 0Z" fill="#4facf7"></path><path d="M0 146L11.5 143.8C23 141.7 46 137.3 69 138.2C92 139 115 145 138.2 152.5C161.3 160 184.7 169 207.8 175.3C231 181.7 254 185.3 277 179.3C300 173.3 323 157.7 346 148.3C369 139 392 136 415.2 137.2C438.3 138.3 461.7 143.7 484.8 147.7C508 151.7 531 154.3 554 161.3C577 168.3 600 179.7 623 178.5C646 177.3 669 163.7 692.2 154.3C715.3 145 738.7 140 761.8 140.3C785 140.7 808 146.3 831 146.3C854 146.3 877 140.7 888.5 137.8L900 135L900 0L888.5 0C877 0 854 0 831 0C808 0 785 0 761.8 0C738.7 0 715.3 0 692.2 0C669 0 646 0 623 0C600 0 577 0 554 0C531 0 508 0 484.8 0C461.7 0 438.3 0 415.2 0C392 0 369 0 346 0C323 0 300 0 277 0C254 0 231 0 207.8 0C184.7 0 161.3 0 138.2 0C115 0 92 0 69 0C46 0 23 0 11.5 0L0 0Z" fill="#72c0f5"></path><path d="M0 127L11.5 125C23 123 46 119 69 113.5C92 108 115 101 138.2 107.2C161.3 113.3 184.7 132.7 207.8 141.7C231 150.7 254 149.3 277 140.2C300 131 323 114 346 110C369 106 392 115 415.2 117.5C438.3 120 461.7 116 484.8 117.5C508 119 531 126 554 128.3C577 130.7 600 128.3 623 126.7C646 125 669 124 692.2 127C715.3 130 738.7 137 761.8 140C785 143 808 142 831 134.8C854 127.7 877 114.3 888.5 107.7L900 101L900 0L888.5 0C877 0 854 0 831 0C808 0 785 0 761.8 0C738.7 0 715.3 0 692.2 0C669 0 646 0 623 0C600 0 577 0 554 0C531 0 508 0 484.8 0C461.7 0 438.3 0 415.2 0C392 0 369 0 346 0C323 0 300 0 277 0C254 0 231 0 207.8 0C184.7 0 161.3 0 138.2 0C115 0 92 0 69 0C46 0 23 0 11.5 0L0 0Z" fill="#99d3f3"></path><path d="M0 85L11.5 85.7C23 86.3 46 87.7 69 87.5C92 87.3 115 85.7 138.2 89C161.3 92.3 184.7 100.7 207.8 99.3C231 98 254 87 277 85.5C300 84 323 92 346 97.7C369 103.3 392 106.7 415.2 106.5C438.3 106.3 461.7 102.7 484.8 101.8C508 101 531 103 554 100C577 97 600 89 623 89.2C646 89.3 669 97.7 692.2 99.3C715.3 101 738.7 96 761.8 96.8C785 97.7 808 104.3 831 104.8C854 105.3 877 99.7 888.5 96.8L900 94L900 0L888.5 0C877 0 854 0 831 0C808 0 785 0 761.8 0C738.7 0 715.3 0 692.2 0C669 0 646 0 623 0C600 0 577 0 554 0C531 0 508 0 484.8 0C461.7 0 438.3 0 415.2 0C392 0 369 0 346 0C323 0 300 0 277 0C254 0 231 0 207.8 0C184.7 0 161.3 0 138.2 0C115 0 92 0 69 0C46 0 23 0 11.5 0L0 0Z" fill="#c2e4f2"></path><path d="M0 40L11.5 42.8C23 45.7 46 51.3 69 55.7C92 60 115 63 138.2 62.7C161.3 62.3 184.7 58.7 207.8 55.2C231 51.7 254 48.3 277 45.5C300 42.7 323 40.3 346 43.2C369 46 392 54 415.2 56.5C438.3 59 461.7 56 484.8 54.3C508 52.7 531 52.3 554 50.3C577 48.3 600 44.7 623 46C646 47.3 669 53.7 692.2 55C715.3 56.3 738.7 52.7 761.8 53.7C785 54.7 808 60.3 831 63C854 65.7 877 65.3 888.5 65.2L900 65L900 0L888.5 0C877 0 854 0 831 0C808 0 785 0 761.8 0C738.7 0 715.3 0 692.2 0C669 0 646 0 623 0C600 0 577 0 554 0C531 0 508 0 484.8 0C461.7 0 438.3 0 415.2 0C392 0 369 0 346 0C323 0 300 0 277 0C254 0 231 0 207.8 0C184.7 0 161.3 0 138.2 0C115 0 92 0 69 0C46 0 23 0 11.5 0L0 0Z" fill="#ecf3f5"></path></svg>