<?xml version="1.0" encoding="utf-8"?>
<!-- Generator: Adobe Illustrator 24.2.3, SVG Export Plug-In . SVG Version: 6.00 Build 0)  -->
<svg version="1.1" id="Layer_1" xmlns="http://www.w3.org/2000/svg" xmlns:xlink="http://www.w3.org/1999/xlink" x="0px" y="0px"
	 viewBox="0 0 32 32" style="enable-background:new 0 0 32 32;" xml:space="preserve">
<style type="text/css">
	.st0{fill:#198754;}
</style>
<g>
	<path class="st0" d="M28.2,20.9l3.4,1.7c0.4,0.2,0.4,0.8,0,1.1l-15.1,7.6c-0.3,0.2-0.7,0.2-1.1,0L0.3,23.7
		c-0.3-0.1-0.4-0.5-0.3-0.8c0.1-0.1,0.2-0.2,0.3-0.3l3.4-1.7l10.6,5.3c1,0.5,2.2,0.5,3.2,0L28.2,20.9L28.2,20.9z M15.5,0.7
		c0.3-0.2,0.7-0.2,1.1,0l15.1,7.6c0.3,0.2,0.4,0.5,0.3,0.8c-0.1,0.1-0.1,0.2-0.3,0.3l-15.1,7.6c-0.3,0.2-0.7,0.2-1.1,0L0.3,9.4
		C0,9.2-0.1,8.9,0.1,8.6c0.1-0.1,0.2-0.2,0.3-0.3L15.5,0.7z"/>
	<path class="st0" d="M28.2,13.7l3.4,1.7c0.4,0.2,0.4,0.8,0,1.1l-15.1,7.6c-0.3,0.2-0.7,0.2-1.1,0L0.3,16.5C0,16.4-0.1,16,0.1,15.7
		c0.1-0.1,0.2-0.2,0.3-0.3l3.4-1.7l10.6,5.3c1,0.5,2.2,0.5,3.2,0L28.2,13.7L28.2,13.7z"/>
</g>
</svg>
