<svg id="visual" viewBox="0 0 900 300" width="900" height="300" xmlns="http://www.w3.org/2000/svg" xmlns:xlink="http://www.w3.org/1999/xlink" version="1.1"><rect x="0" y="0" width="900" height="300" fill="#ecf3f5"></rect><path d="M0 80L30 86C60 92 120 104 180 103.7C240 103.3 300 90.7 360 107.7C420 124.7 480 171.3 540 173.5C600 175.7 660 133.3 720 123C780 112.7 840 134.3 870 145.2L900 156L900 0L870 0C840 0 780 0 720 0C660 0 600 0 540 0C480 0 420 0 360 0C300 0 240 0 180 0C120 0 60 0 30 0L0 0Z" fill="#009473" stroke-linecap="round" stroke-linejoin="miter"></path></svg>