<svg id="visual" viewBox="0 0 900 300" width="900" height="300" xmlns="http://www.w3.org/2000/svg" xmlns:xlink="http://www.w3.org/1999/xlink" version="1.1"><rect x="0" y="0" width="900" height="300" fill="#009473"></rect><path d="M0 107L30 112.2C60 117.3 120 127.7 180 147C240 166.3 300 194.7 360 192.2C420 189.7 480 156.3 540 133.7C600 111 660 99 720 115.2C780 131.3 840 175.7 870 197.8L900 220L900 0L870 0C840 0 780 0 720 0C660 0 600 0 540 0C480 0 420 0 360 0C300 0 240 0 180 0C120 0 60 0 30 0L0 0Z" fill="#ecf3f5" stroke-linecap="round" stroke-linejoin="miter"></path></svg>